<!-- <svg viewBox="0 0 200 187" xmlns="http://www.w3.org/2000/svg" xmlns:xlink="http://www.w3.org/1999/xlink">
    <mask id="mask0" mask-type="alpha">
        <path d="M190.312 36.4879C206.582 62.1187 201.309 102.826 182.328 134.186C163.346 165.547 
        130.807 187.559 100.226 186.353C69.6454 185.297 41.0228 161.023 21.7403 129.362C2.45775 
        97.8511 -7.48481 59.1033 6.67581 34.5279C20.9871 10.1032 59.7028 -0.149132 97.9666 
        0.00163737C136.23 0.303176 174.193 10.857 190.312 36.4879Z"/>
    </mask>
    <g mask="url(#mask0)">
        <path d="M190.312 36.4879C206.582 62.1187 201.309 102.826 182.328 134.186C163.346 
        165.547 130.807 187.559 100.226 186.353C69.6454 185.297 41.0228 161.023 21.7403 
        129.362C2.45775 97.8511 -7.48481 59.1033 6.67581 34.5279C20.9871 10.1032 59.7028 
        -0.149132 97.9666 0.00163737C136.23 0.303176 174.193 10.857 190.312 36.4879Z"/>
        <image href=""/>
    </g>
</svg> -->


<svg viewBox="0 0 200 187" xmlns="http://www.w3.org/2000/svg" xmlns:xlink="http://www.w3.org/1999/xlink">
    <mask id="mask0" mask-type="alpha">
        <path fill="#E7AD04" d="M44,-59.8C56.3,-51.7,64.9,-37.8,68.2,-23.2C71.5,-8.6,69.5,6.7,66.9,23.9C64.2,41,60.9,60.1,49.6,69.1C38.4,78.1,19.2,76.9,0.1,76.8C-19,76.7,-38,77.5,-48.8,68.4C-59.7,59.3,-62.5,40.3,-64.6,23.4C-66.8,6.6,-68.3,-8.1,-64.1,-20.8C-59.9,-33.5,-50,-44.4,-38.4,-52.6C-26.7,-60.8,-13.4,-66.5,1.3,-68.2C15.9,-70,31.8,-67.8,44,-59.8Z" transform="translate(100 100)"/>
    </mask>
    <g mask="url(#mask0)">
        <path fill="#E7AD04" d="M44,-59.8C56.3,-51.7,64.9,-37.8,68.2,-23.2C71.5,-8.6,69.5,6.7,66.9,23.9C64.2,41,60.9,60.1,49.6,69.1C38.4,78.1,19.2,76.9,0.1,76.8C-19,76.7,-38,77.5,-48.8,68.4C-59.7,59.3,-62.5,40.3,-64.6,23.4C-66.8,6.6,-68.3,-8.1,-64.1,-20.8C-59.9,-33.5,-50,-44.4,-38.4,-52.6C-26.7,-60.8,-13.4,-66.5,1.3,-68.2C15.9,-70,31.8,-67.8,44,-59.8Z" transform="translate(100 100)"/>
        <image href=""/>
    </g>
</svg>